<?xml version="1.0" encoding="UTF-8" standalone="no"?>
<!DOCTYPE svg PUBLIC "-//W3C//DTD SVG 1.1//EN"
 "http://www.w3.org/Graphics/SVG/1.1/DTD/svg11.dtd">
<!-- Generated by graphviz version 2.38.0 (20140413.2041)
 -->
<!-- Title: G Pages: 1 -->
<svg width="1779pt" height="476pt"
 viewBox="0.00 0.00 1779.30 476.00" xmlns="http://www.w3.org/2000/svg" xmlns:xlink="http://www.w3.org/1999/xlink">
<g id="graph0" class="graph" transform="scale(1 1) rotate(0) translate(4 472)">
<title>G</title>
<polygon fill="white" stroke="none" points="-4,4 -4,-472 1775.3,-472 1775.3,4 -4,4"/>
<!-- 0 File -->
<g id="node1" class="node"><title>0 File</title>
<ellipse fill="none" stroke="black" cx="534.295" cy="-450" rx="30.5947" ry="18"/>
<text text-anchor="middle" x="534.295" y="-446.3" font-family="Times New Roman,serif" font-size="14.00">0 File</text>
</g>
<!-- 1 Fn -->
<g id="node2" class="node"><title>1 Fn</title>
<ellipse fill="none" stroke="black" cx="282.295" cy="-378" rx="27.0966" ry="18"/>
<text text-anchor="middle" x="282.295" y="-374.3" font-family="Times New Roman,serif" font-size="14.00">1 Fn</text>
</g>
<!-- 0 File&#45;&gt;1 Fn -->
<g id="edge1" class="edge"><title>0 File&#45;&gt;1 Fn</title>
<path fill="none" stroke="black" d="M507.327,-441.509C461.356,-428.739 367.874,-402.772 317.063,-388.658"/>
<polygon fill="black" stroke="black" points="317.77,-385.222 307.198,-385.917 315.897,-391.966 317.77,-385.222"/>
</g>
<!-- 9 Fn -->
<g id="node3" class="node"><title>9 Fn</title>
<ellipse fill="none" stroke="black" cx="725.295" cy="-378" rx="27.0966" ry="18"/>
<text text-anchor="middle" x="725.295" y="-374.3" font-family="Times New Roman,serif" font-size="14.00">9 Fn</text>
</g>
<!-- 0 File&#45;&gt;9 Fn -->
<g id="edge2" class="edge"><title>0 File&#45;&gt;9 Fn</title>
<path fill="none" stroke="black" d="M559.659,-439.705C593.845,-427.175 654.757,-404.852 692.422,-391.048"/>
<polygon fill="black" stroke="black" points="693.742,-394.292 701.926,-387.564 691.333,-387.719 693.742,-394.292"/>
</g>
<!-- 2 Id(read_in) -->
<g id="node4" class="node"><title>2 Id(read_in)</title>
<ellipse fill="none" stroke="black" cx="99.2953" cy="-306" rx="57.6901" ry="18"/>
<text text-anchor="middle" x="99.2953" y="-302.3" font-family="Times New Roman,serif" font-size="14.00">2 Id(read_in)</text>
</g>
<!-- 1 Fn&#45;&gt;2 Id(read_in) -->
<g id="edge3" class="edge"><title>1 Fn&#45;&gt;2 Id(read_in)</title>
<path fill="none" stroke="black" d="M259.118,-368.134C230.248,-357.091 180.295,-337.983 143.903,-324.063"/>
<polygon fill="black" stroke="black" points="145.087,-320.769 134.497,-320.465 142.586,-327.307 145.087,-320.769"/>
</g>
<!-- 3 FnType -->
<g id="node5" class="node"><title>3 FnType</title>
<ellipse fill="none" stroke="black" cx="221.295" cy="-306" rx="46.2923" ry="18"/>
<text text-anchor="middle" x="221.295" y="-302.3" font-family="Times New Roman,serif" font-size="14.00">3 FnType</text>
</g>
<!-- 1 Fn&#45;&gt;3 FnType -->
<g id="edge4" class="edge"><title>1 Fn&#45;&gt;3 FnType</title>
<path fill="none" stroke="black" d="M269.059,-361.811C261.317,-352.927 251.363,-341.504 242.547,-331.388"/>
<polygon fill="black" stroke="black" points="244.994,-328.868 235.785,-323.628 239.716,-333.466 244.994,-328.868"/>
</g>
<!-- 6 Call -->
<g id="node6" class="node"><title>6 Call</title>
<ellipse fill="none" stroke="black" cx="343.295" cy="-306" rx="31.6951" ry="18"/>
<text text-anchor="middle" x="343.295" y="-302.3" font-family="Times New Roman,serif" font-size="14.00">6 Call</text>
</g>
<!-- 1 Fn&#45;&gt;6 Call -->
<g id="edge5" class="edge"><title>1 Fn&#45;&gt;6 Call</title>
<path fill="none" stroke="black" d="M295.531,-361.811C303.573,-352.583 314.002,-340.615 323.063,-330.217"/>
<polygon fill="black" stroke="black" points="325.732,-332.483 329.663,-322.644 320.454,-327.884 325.732,-332.483"/>
</g>
<!-- 10 Id(main) -->
<g id="node11" class="node"><title>10 Id(main)</title>
<ellipse fill="none" stroke="black" cx="604.295" cy="-306" rx="52.7911" ry="18"/>
<text text-anchor="middle" x="604.295" y="-302.3" font-family="Times New Roman,serif" font-size="14.00">10 Id(main)</text>
</g>
<!-- 9 Fn&#45;&gt;10 Id(main) -->
<g id="edge10" class="edge"><title>9 Fn&#45;&gt;10 Id(main)</title>
<path fill="none" stroke="black" d="M705.315,-365.441C687.342,-355.044 660.541,-339.539 639.06,-327.112"/>
<polygon fill="black" stroke="black" points="640.629,-323.976 630.22,-321.998 637.124,-330.035 640.629,-323.976"/>
</g>
<!-- 11 FnType -->
<g id="node12" class="node"><title>11 FnType</title>
<ellipse fill="none" stroke="black" cx="725.295" cy="-306" rx="50.8918" ry="18"/>
<text text-anchor="middle" x="725.295" y="-302.3" font-family="Times New Roman,serif" font-size="14.00">11 FnType</text>
</g>
<!-- 9 Fn&#45;&gt;11 FnType -->
<g id="edge11" class="edge"><title>9 Fn&#45;&gt;11 FnType</title>
<path fill="none" stroke="black" d="M725.295,-359.697C725.295,-351.983 725.295,-342.712 725.295,-334.112"/>
<polygon fill="black" stroke="black" points="728.795,-334.104 725.295,-324.104 721.795,-334.104 728.795,-334.104"/>
</g>
<!-- 14 Seq -->
<g id="node13" class="node"><title>14 Seq</title>
<ellipse fill="none" stroke="black" cx="1000.3" cy="-306" rx="36.2938" ry="18"/>
<text text-anchor="middle" x="1000.3" y="-302.3" font-family="Times New Roman,serif" font-size="14.00">14 Seq</text>
</g>
<!-- 9 Fn&#45;&gt;14 Seq -->
<g id="edge12" class="edge"><title>9 Fn&#45;&gt;14 Seq</title>
<path fill="none" stroke="black" d="M750.674,-370.54C798.213,-358.439 901.082,-332.254 958.825,-317.556"/>
<polygon fill="black" stroke="black" points="959.888,-320.897 968.716,-315.038 958.161,-314.113 959.888,-320.897"/>
</g>
<!-- 42 Id(a) -->
<g id="node14" class="node"><title>42 Id(a)</title>
<ellipse fill="none" stroke="black" cx="1094.3" cy="-306" rx="39.7935" ry="18"/>
<text text-anchor="middle" x="1094.3" y="-302.3" font-family="Times New Roman,serif" font-size="14.00">42 Id(a)</text>
</g>
<!-- 9 Fn&#45;&gt;42 Id(a) -->
<g id="edge13" class="edge"><title>9 Fn&#45;&gt;42 Id(a)</title>
<path fill="none" stroke="black" d="M752.162,-374.114C807.576,-367.819 938.328,-351.204 1045.3,-324 1048.48,-323.19 1051.75,-322.265 1055.02,-321.275"/>
<polygon fill="black" stroke="black" points="1056.29,-324.545 1064.74,-318.158 1054.15,-317.88 1056.29,-324.545"/>
</g>
<!-- 4 SumType -->
<g id="node7" class="node"><title>4 SumType</title>
<ellipse fill="none" stroke="black" cx="53.2953" cy="-234" rx="53.0913" ry="18"/>
<text text-anchor="middle" x="53.2953" y="-230.3" font-family="Times New Roman,serif" font-size="14.00">4 SumType</text>
</g>
<!-- 3 FnType&#45;&gt;4 SumType -->
<g id="edge6" class="edge"><title>3 FnType&#45;&gt;4 SumType</title>
<path fill="none" stroke="black" d="M190.872,-292.324C163.995,-281.125 124.559,-264.693 94.7923,-252.29"/>
<polygon fill="black" stroke="black" points="96.0725,-249.032 85.4956,-248.417 93.3802,-255.494 96.0725,-249.032"/>
</g>
<!-- 5 TypeId(string) -->
<g id="node8" class="node"><title>5 TypeId(string)</title>
<ellipse fill="none" stroke="black" cx="194.295" cy="-234" rx="70.3881" ry="18"/>
<text text-anchor="middle" x="194.295" y="-230.3" font-family="Times New Roman,serif" font-size="14.00">5 TypeId(string)</text>
</g>
<!-- 3 FnType&#45;&gt;5 TypeId(string) -->
<g id="edge7" class="edge"><title>3 FnType&#45;&gt;5 TypeId(string)</title>
<path fill="none" stroke="black" d="M214.759,-288.055C211.72,-280.176 208.033,-270.617 204.63,-261.794"/>
<polygon fill="black" stroke="black" points="207.823,-260.346 200.959,-252.275 201.292,-262.865 207.823,-260.346"/>
</g>
<!-- 7 Id(std.read) -->
<g id="node9" class="node"><title>7 Id(std.read)</title>
<ellipse fill="none" stroke="black" cx="343.295" cy="-234" rx="60.3893" ry="18"/>
<text text-anchor="middle" x="343.295" y="-230.3" font-family="Times New Roman,serif" font-size="14.00">7 Id(std.read)</text>
</g>
<!-- 6 Call&#45;&gt;7 Id(std.read) -->
<g id="edge8" class="edge"><title>6 Call&#45;&gt;7 Id(std.read)</title>
<path fill="none" stroke="black" d="M343.295,-287.697C343.295,-279.983 343.295,-270.712 343.295,-262.112"/>
<polygon fill="black" stroke="black" points="346.795,-262.104 343.295,-252.104 339.795,-262.104 346.795,-262.104"/>
</g>
<!-- 8 in.txt -->
<g id="node10" class="node"><title>8 in.txt</title>
<ellipse fill="none" stroke="black" cx="457.295" cy="-234" rx="35.9954" ry="18"/>
<text text-anchor="middle" x="457.295" y="-230.3" font-family="Times New Roman,serif" font-size="14.00">8 in.txt</text>
</g>
<!-- 6 Call&#45;&gt;8 in.txt -->
<g id="edge9" class="edge"><title>6 Call&#45;&gt;8 in.txt</title>
<path fill="none" stroke="black" d="M364.205,-292.161C381.708,-281.413 406.923,-265.93 426.698,-253.788"/>
<polygon fill="black" stroke="black" points="428.663,-256.689 435.353,-248.473 425,-250.723 428.663,-256.689"/>
</g>
<!-- 12 TypeId(ui8) -->
<g id="node15" class="node"><title>12 TypeId(ui8)</title>
<ellipse fill="none" stroke="black" cx="576.295" cy="-234" rx="65.7887" ry="18"/>
<text text-anchor="middle" x="576.295" y="-230.3" font-family="Times New Roman,serif" font-size="14.00">12 TypeId(ui8)</text>
</g>
<!-- 11 FnType&#45;&gt;12 TypeId(ui8) -->
<g id="edge14" class="edge"><title>11 FnType&#45;&gt;12 TypeId(ui8)</title>
<path fill="none" stroke="black" d="M695.858,-291.17C673.372,-280.606 642.113,-265.921 617.197,-254.216"/>
<polygon fill="black" stroke="black" points="618.529,-250.974 607.99,-249.89 615.552,-257.31 618.529,-250.974"/>
</g>
<!-- 13 TypeId(ui8) -->
<g id="node16" class="node"><title>13 TypeId(ui8)</title>
<ellipse fill="none" stroke="black" cx="725.295" cy="-234" rx="65.7887" ry="18"/>
<text text-anchor="middle" x="725.295" y="-230.3" font-family="Times New Roman,serif" font-size="14.00">13 TypeId(ui8)</text>
</g>
<!-- 11 FnType&#45;&gt;13 TypeId(ui8) -->
<g id="edge15" class="edge"><title>11 FnType&#45;&gt;13 TypeId(ui8)</title>
<path fill="none" stroke="black" d="M725.295,-287.697C725.295,-279.983 725.295,-270.712 725.295,-262.112"/>
<polygon fill="black" stroke="black" points="728.795,-262.104 725.295,-252.104 721.795,-262.104 728.795,-262.104"/>
</g>
<!-- 15 Let -->
<g id="node17" class="node"><title>15 Let</title>
<ellipse fill="none" stroke="black" cx="842.295" cy="-234" rx="33.5952" ry="18"/>
<text text-anchor="middle" x="842.295" y="-230.3" font-family="Times New Roman,serif" font-size="14.00">15 Let</text>
</g>
<!-- 14 Seq&#45;&gt;15 Let -->
<g id="edge16" class="edge"><title>14 Seq&#45;&gt;15 Let</title>
<path fill="none" stroke="black" d="M974.205,-293.441C947.588,-281.649 906.142,-263.286 876.82,-250.296"/>
<polygon fill="black" stroke="black" points="877.941,-246.964 867.38,-246.113 875.105,-253.364 877.941,-246.964"/>
</g>
<!-- 25 Let -->
<g id="node18" class="node"><title>25 Let</title>
<ellipse fill="none" stroke="black" cx="1000.3" cy="-234" rx="33.5952" ry="18"/>
<text text-anchor="middle" x="1000.3" y="-230.3" font-family="Times New Roman,serif" font-size="14.00">25 Let</text>
</g>
<!-- 14 Seq&#45;&gt;25 Let -->
<g id="edge17" class="edge"><title>14 Seq&#45;&gt;25 Let</title>
<path fill="none" stroke="black" d="M1000.3,-287.697C1000.3,-279.983 1000.3,-270.712 1000.3,-262.112"/>
<polygon fill="black" stroke="black" points="1003.8,-262.104 1000.3,-252.104 996.795,-262.104 1003.8,-262.104"/>
</g>
<!-- 31 Call -->
<g id="node19" class="node"><title>31 Call</title>
<ellipse fill="none" stroke="black" cx="1256.3" cy="-234" rx="36.2938" ry="18"/>
<text text-anchor="middle" x="1256.3" y="-230.3" font-family="Times New Roman,serif" font-size="14.00">31 Call</text>
</g>
<!-- 14 Seq&#45;&gt;31 Call -->
<g id="edge18" class="edge"><title>14 Seq&#45;&gt;31 Call</title>
<path fill="none" stroke="black" d="M1027.73,-294.064C1033.49,-291.929 1039.56,-289.798 1045.3,-288 1102.85,-269.965 1170.71,-253.806 1213.62,-244.201"/>
<polygon fill="black" stroke="black" points="1214.44,-247.605 1223.44,-242.02 1212.92,-240.771 1214.44,-247.605"/>
</g>
<!-- 34 Call -->
<g id="node20" class="node"><title>34 Call</title>
<ellipse fill="none" stroke="black" cx="1430.3" cy="-234" rx="36.2938" ry="18"/>
<text text-anchor="middle" x="1430.3" y="-230.3" font-family="Times New Roman,serif" font-size="14.00">34 Call</text>
</g>
<!-- 14 Seq&#45;&gt;34 Call -->
<g id="edge19" class="edge"><title>14 Seq&#45;&gt;34 Call</title>
<path fill="none" stroke="black" d="M1027.11,-293.75C1033.02,-291.586 1039.31,-289.523 1045.3,-288 1061.64,-283.844 1287.35,-253.844 1385.38,-240.909"/>
<polygon fill="black" stroke="black" points="1386.11,-244.343 1395.57,-239.565 1385.2,-237.403 1386.11,-244.343"/>
</g>
<!-- 41 2 -->
<g id="node21" class="node"><title>41 2</title>
<ellipse fill="none" stroke="black" cx="1511.3" cy="-234" rx="27" ry="18"/>
<text text-anchor="middle" x="1511.3" y="-230.3" font-family="Times New Roman,serif" font-size="14.00">41 2</text>
</g>
<!-- 14 Seq&#45;&gt;41 2 -->
<g id="edge20" class="edge"><title>14 Seq&#45;&gt;41 2</title>
<path fill="none" stroke="black" d="M1027.05,-293.507C1032.96,-291.358 1039.27,-289.363 1045.3,-288 1232.35,-245.705 1290.08,-301.739 1475.3,-252 1477.25,-251.476 1479.22,-250.849 1481.19,-250.151"/>
<polygon fill="black" stroke="black" points="1482.91,-253.23 1490.84,-246.199 1480.26,-246.752 1482.91,-253.23"/>
</g>
<!-- 16 Id(c) -->
<g id="node22" class="node"><title>16 Id(c)</title>
<ellipse fill="none" stroke="black" cx="528.295" cy="-162" rx="40.0939" ry="18"/>
<text text-anchor="middle" x="528.295" y="-158.3" font-family="Times New Roman,serif" font-size="14.00">16 Id(c)</text>
</g>
<!-- 15 Let&#45;&gt;16 Id(c) -->
<g id="edge21" class="edge"><title>15 Let&#45;&gt;16 Id(c)</title>
<path fill="none" stroke="black" d="M817.296,-221.814C811.776,-219.647 805.902,-217.566 800.295,-216 703.601,-188.996 674.643,-204.546 577.295,-180 574.152,-179.207 570.924,-178.302 567.697,-177.33"/>
<polygon fill="black" stroke="black" points="568.696,-173.975 558.105,-174.266 566.565,-180.643 568.696,-173.975"/>
</g>
<!-- 17 ArrayType -->
<g id="node23" class="node"><title>17 ArrayType</title>
<ellipse fill="none" stroke="black" cx="648.295" cy="-162" rx="61.99" ry="18"/>
<text text-anchor="middle" x="648.295" y="-158.3" font-family="Times New Roman,serif" font-size="14.00">17 ArrayType</text>
</g>
<!-- 15 Let&#45;&gt;17 ArrayType -->
<g id="edge22" class="edge"><title>15 Let&#45;&gt;17 ArrayType</title>
<path fill="none" stroke="black" d="M816.16,-222.19C810.924,-220.09 805.449,-217.94 800.295,-216 765.987,-203.084 726.931,-189.489 696.999,-179.303"/>
<polygon fill="black" stroke="black" points="697.813,-175.883 687.218,-175.984 695.564,-182.512 697.813,-175.883"/>
</g>
<!-- 19 Array -->
<g id="node24" class="node"><title>19 Array</title>
<ellipse fill="none" stroke="black" cx="770.295" cy="-162" rx="42.4939" ry="18"/>
<text text-anchor="middle" x="770.295" y="-158.3" font-family="Times New Roman,serif" font-size="14.00">19 Array</text>
</g>
<!-- 15 Let&#45;&gt;19 Array -->
<g id="edge23" class="edge"><title>15 Let&#45;&gt;19 Array</title>
<path fill="none" stroke="black" d="M826.672,-217.811C817.087,-208.492 804.629,-196.38 793.862,-185.912"/>
<polygon fill="black" stroke="black" points="795.996,-183.105 786.386,-178.644 791.116,-188.124 795.996,-183.105"/>
</g>
<!-- 26 Id(f) -->
<g id="node31" class="node"><title>26 Id(f)</title>
<ellipse fill="none" stroke="black" cx="869.295" cy="-162" rx="38.1938" ry="18"/>
<text text-anchor="middle" x="869.295" y="-158.3" font-family="Times New Roman,serif" font-size="14.00">26 Id(f)</text>
</g>
<!-- 25 Let&#45;&gt;26 Id(f) -->
<g id="edge30" class="edge"><title>25 Let&#45;&gt;26 Id(f)</title>
<path fill="none" stroke="black" d="M977.177,-220.647C956.556,-209.628 926.115,-193.361 902.821,-180.915"/>
<polygon fill="black" stroke="black" points="904.432,-177.807 893.963,-176.181 901.133,-183.981 904.432,-177.807"/>
</g>
<!-- 27 TypeId(string) -->
<g id="node32" class="node"><title>27 TypeId(string)</title>
<ellipse fill="none" stroke="black" cx="1000.3" cy="-162" rx="74.9875" ry="18"/>
<text text-anchor="middle" x="1000.3" y="-158.3" font-family="Times New Roman,serif" font-size="14.00">27 TypeId(string)</text>
</g>
<!-- 25 Let&#45;&gt;27 TypeId(string) -->
<g id="edge31" class="edge"><title>25 Let&#45;&gt;27 TypeId(string)</title>
<path fill="none" stroke="black" d="M1000.3,-215.697C1000.3,-207.983 1000.3,-198.712 1000.3,-190.112"/>
<polygon fill="black" stroke="black" points="1003.8,-190.104 1000.3,-180.104 996.795,-190.104 1003.8,-190.104"/>
</g>
<!-- 28 Call -->
<g id="node33" class="node"><title>28 Call</title>
<ellipse fill="none" stroke="black" cx="1129.3" cy="-162" rx="36.2938" ry="18"/>
<text text-anchor="middle" x="1129.3" y="-158.3" font-family="Times New Roman,serif" font-size="14.00">28 Call</text>
</g>
<!-- 25 Let&#45;&gt;28 Call -->
<g id="edge32" class="edge"><title>25 Let&#45;&gt;28 Call</title>
<path fill="none" stroke="black" d="M1023.06,-220.647C1043.4,-209.608 1073.45,-193.302 1096.41,-180.846"/>
<polygon fill="black" stroke="black" points="1098.33,-183.787 1105.45,-175.941 1094.99,-177.634 1098.33,-183.787"/>
</g>
<!-- 32 Id(std.println) -->
<g id="node36" class="node"><title>32 Id(std.println)</title>
<ellipse fill="none" stroke="black" cx="1256.3" cy="-162" rx="72.2875" ry="18"/>
<text text-anchor="middle" x="1256.3" y="-158.3" font-family="Times New Roman,serif" font-size="14.00">32 Id(std.println)</text>
</g>
<!-- 31 Call&#45;&gt;32 Id(std.println) -->
<g id="edge35" class="edge"><title>31 Call&#45;&gt;32 Id(std.println)</title>
<path fill="none" stroke="black" d="M1256.3,-215.697C1256.3,-207.983 1256.3,-198.712 1256.3,-190.112"/>
<polygon fill="black" stroke="black" points="1259.8,-190.104 1256.3,-180.104 1252.8,-190.104 1259.8,-190.104"/>
</g>
<!-- 33 Id(f) -->
<g id="node37" class="node"><title>33 Id(f)</title>
<ellipse fill="none" stroke="black" cx="1384.3" cy="-162" rx="38.1938" ry="18"/>
<text text-anchor="middle" x="1384.3" y="-158.3" font-family="Times New Roman,serif" font-size="14.00">33 Id(f)</text>
</g>
<!-- 31 Call&#45;&gt;33 Id(f) -->
<g id="edge36" class="edge"><title>31 Call&#45;&gt;33 Id(f)</title>
<path fill="none" stroke="black" d="M1279.77,-220.161C1299.82,-209.199 1328.87,-193.31 1351.26,-181.065"/>
<polygon fill="black" stroke="black" points="1353,-184.102 1360.1,-176.233 1349.64,-177.961 1353,-184.102"/>
</g>
<!-- 35 Id(std.println) -->
<g id="node38" class="node"><title>35 Id(std.println)</title>
<ellipse fill="none" stroke="black" cx="1512.3" cy="-162" rx="72.2875" ry="18"/>
<text text-anchor="middle" x="1512.3" y="-158.3" font-family="Times New Roman,serif" font-size="14.00">35 Id(std.println)</text>
</g>
<!-- 34 Call&#45;&gt;35 Id(std.println) -->
<g id="edge37" class="edge"><title>34 Call&#45;&gt;35 Id(std.println)</title>
<path fill="none" stroke="black" d="M1447.69,-218.155C1458.56,-208.871 1472.8,-196.717 1485.14,-186.182"/>
<polygon fill="black" stroke="black" points="1487.59,-188.694 1492.92,-179.539 1483.04,-183.37 1487.59,-188.694"/>
</g>
<!-- 36 Call -->
<g id="node39" class="node"><title>36 Call</title>
<ellipse fill="none" stroke="black" cx="1639.3" cy="-162" rx="36.2938" ry="18"/>
<text text-anchor="middle" x="1639.3" y="-158.3" font-family="Times New Roman,serif" font-size="14.00">36 Call</text>
</g>
<!-- 34 Call&#45;&gt;36 Call -->
<g id="edge38" class="edge"><title>34 Call&#45;&gt;36 Call</title>
<path fill="none" stroke="black" d="M1458.28,-222.106C1463.89,-220.013 1469.76,-217.887 1475.3,-216 1527.19,-198.302 1541.34,-197.511 1593.3,-180 1596.02,-179.082 1598.82,-178.111 1601.64,-177.116"/>
<polygon fill="black" stroke="black" points="1602.94,-180.367 1611.17,-173.688 1600.57,-173.781 1602.94,-180.367"/>
</g>
<!-- 18 TypeId(ui8) -->
<g id="node25" class="node"><title>18 TypeId(ui8)</title>
<ellipse fill="none" stroke="black" cx="632.295" cy="-90" rx="65.7887" ry="18"/>
<text text-anchor="middle" x="632.295" y="-86.3" font-family="Times New Roman,serif" font-size="14.00">18 TypeId(ui8)</text>
</g>
<!-- 17 ArrayType&#45;&gt;18 TypeId(ui8) -->
<g id="edge24" class="edge"><title>17 ArrayType&#45;&gt;18 TypeId(ui8)</title>
<path fill="none" stroke="black" d="M644.34,-143.697C642.577,-135.983 640.458,-126.712 638.492,-118.112"/>
<polygon fill="black" stroke="black" points="641.845,-117.073 636.205,-108.104 635.021,-118.633 641.845,-117.073"/>
</g>
<!-- 20 + -->
<g id="node26" class="node"><title>20 +</title>
<ellipse fill="none" stroke="black" cx="743.295" cy="-90" rx="27.0966" ry="18"/>
<text text-anchor="middle" x="743.295" y="-86.3" font-family="Times New Roman,serif" font-size="14.00">20 +</text>
</g>
<!-- 19 Array&#45;&gt;20 + -->
<g id="edge25" class="edge"><title>19 Array&#45;&gt;20 +</title>
<path fill="none" stroke="black" d="M763.759,-144.055C760.675,-136.059 756.923,-126.331 753.478,-117.4"/>
<polygon fill="black" stroke="black" points="756.635,-115.859 749.771,-107.789 750.104,-118.379 756.635,-115.859"/>
</g>
<!-- 23 2 -->
<g id="node27" class="node"><title>23 2</title>
<ellipse fill="none" stroke="black" cx="815.295" cy="-90" rx="27" ry="18"/>
<text text-anchor="middle" x="815.295" y="-86.3" font-family="Times New Roman,serif" font-size="14.00">23 2</text>
</g>
<!-- 19 Array&#45;&gt;23 2 -->
<g id="edge26" class="edge"><title>19 Array&#45;&gt;23 2</title>
<path fill="none" stroke="black" d="M780.96,-144.411C786.474,-135.832 793.316,-125.191 799.436,-115.67"/>
<polygon fill="black" stroke="black" points="802.554,-117.293 805.017,-106.988 796.665,-113.507 802.554,-117.293"/>
</g>
<!-- 24 3 -->
<g id="node28" class="node"><title>24 3</title>
<ellipse fill="none" stroke="black" cx="887.295" cy="-90" rx="27" ry="18"/>
<text text-anchor="middle" x="887.295" y="-86.3" font-family="Times New Roman,serif" font-size="14.00">24 3</text>
</g>
<!-- 19 Array&#45;&gt;24 3 -->
<g id="edge27" class="edge"><title>19 Array&#45;&gt;24 3</title>
<path fill="none" stroke="black" d="M793.691,-147.003C812.543,-135.723 839.114,-119.826 859.133,-107.849"/>
<polygon fill="black" stroke="black" points="861.034,-110.791 867.818,-102.653 857.44,-104.784 861.034,-110.791"/>
</g>
<!-- 21 1 -->
<g id="node29" class="node"><title>21 1</title>
<ellipse fill="none" stroke="black" cx="707.295" cy="-18" rx="27" ry="18"/>
<text text-anchor="middle" x="707.295" y="-14.3" font-family="Times New Roman,serif" font-size="14.00">21 1</text>
</g>
<!-- 20 +&#45;&gt;21 1 -->
<g id="edge28" class="edge"><title>20 +&#45;&gt;21 1</title>
<path fill="none" stroke="black" d="M734.946,-72.7646C730.584,-64.2831 725.148,-53.7144 720.254,-44.1974"/>
<polygon fill="black" stroke="black" points="723.286,-42.4395 715.6,-35.1473 717.061,-45.6409 723.286,-42.4395"/>
</g>
<!-- 22 2 -->
<g id="node30" class="node"><title>22 2</title>
<ellipse fill="none" stroke="black" cx="779.295" cy="-18" rx="27" ry="18"/>
<text text-anchor="middle" x="779.295" y="-14.3" font-family="Times New Roman,serif" font-size="14.00">22 2</text>
</g>
<!-- 20 +&#45;&gt;22 2 -->
<g id="edge29" class="edge"><title>20 +&#45;&gt;22 2</title>
<path fill="none" stroke="black" d="M751.645,-72.7646C756.007,-64.2831 761.442,-53.7144 766.337,-44.1974"/>
<polygon fill="black" stroke="black" points="769.53,-45.6409 770.991,-35.1473 763.305,-42.4395 769.53,-45.6409"/>
</g>
<!-- 29 Id(read_in) -->
<g id="node34" class="node"><title>29 Id(read_in)</title>
<ellipse fill="none" stroke="black" cx="1022.3" cy="-90" rx="62.2891" ry="18"/>
<text text-anchor="middle" x="1022.3" y="-86.3" font-family="Times New Roman,serif" font-size="14.00">29 Id(read_in)</text>
</g>
<!-- 28 Call&#45;&gt;29 Id(read_in) -->
<g id="edge33" class="edge"><title>28 Call&#45;&gt;29 Id(read_in)</title>
<path fill="none" stroke="black" d="M1108.16,-147.17C1093.01,-137.263 1072.33,-123.73 1055.05,-112.43"/>
<polygon fill="black" stroke="black" points="1056.66,-109.301 1046.38,-106.756 1052.83,-115.159 1056.66,-109.301"/>
</g>
<!-- 30 Tuple -->
<g id="node35" class="node"><title>30 Tuple</title>
<ellipse fill="none" stroke="black" cx="1145.3" cy="-90" rx="42.7926" ry="18"/>
<text text-anchor="middle" x="1145.3" y="-86.3" font-family="Times New Roman,serif" font-size="14.00">30 Tuple</text>
</g>
<!-- 28 Call&#45;&gt;30 Tuple -->
<g id="edge34" class="edge"><title>28 Call&#45;&gt;30 Tuple</title>
<path fill="none" stroke="black" d="M1133.17,-144.055C1134.95,-136.261 1137.11,-126.822 1139.11,-118.079"/>
<polygon fill="black" stroke="black" points="1142.53,-118.804 1141.35,-108.275 1135.71,-117.244 1142.53,-118.804"/>
</g>
<!-- 37 Id(std.to_string) -->
<g id="node40" class="node"><title>37 Id(std.to_string)</title>
<ellipse fill="none" stroke="black" cx="1575.3" cy="-90" rx="81.4863" ry="18"/>
<text text-anchor="middle" x="1575.3" y="-86.3" font-family="Times New Roman,serif" font-size="14.00">37 Id(std.to_string)</text>
</g>
<!-- 36 Call&#45;&gt;37 Id(std.to_string) -->
<g id="edge39" class="edge"><title>36 Call&#45;&gt;37 Id(std.to_string)</title>
<path fill="none" stroke="black" d="M1624.77,-145.116C1616.74,-136.331 1606.59,-125.229 1597.58,-115.37"/>
<polygon fill="black" stroke="black" points="1599.98,-112.816 1590.65,-107.797 1594.82,-117.539 1599.98,-112.816"/>
</g>
<!-- 38 !! -->
<g id="node41" class="node"><title>38 !!</title>
<ellipse fill="none" stroke="black" cx="1702.3" cy="-90" rx="27.8951" ry="18"/>
<text text-anchor="middle" x="1702.3" y="-86.3" font-family="Times New Roman,serif" font-size="14.00">38 !!</text>
</g>
<!-- 36 Call&#45;&gt;38 !! -->
<g id="edge40" class="edge"><title>36 Call&#45;&gt;38 !!</title>
<path fill="none" stroke="black" d="M1653.59,-145.116C1662.04,-135.73 1672.87,-123.698 1682.17,-113.364"/>
<polygon fill="black" stroke="black" points="1684.83,-115.638 1688.92,-105.864 1679.63,-110.956 1684.83,-115.638"/>
</g>
<!-- 39 Id(c) -->
<g id="node42" class="node"><title>39 Id(c)</title>
<ellipse fill="none" stroke="black" cx="1659.3" cy="-18" rx="40.0939" ry="18"/>
<text text-anchor="middle" x="1659.3" y="-14.3" font-family="Times New Roman,serif" font-size="14.00">39 Id(c)</text>
</g>
<!-- 38 !!&#45;&gt;39 Id(c) -->
<g id="edge41" class="edge"><title>38 !!&#45;&gt;39 Id(c)</title>
<path fill="none" stroke="black" d="M1692.54,-73.1159C1687.36,-64.679 1680.86,-54.1044 1674.99,-44.5465"/>
<polygon fill="black" stroke="black" points="1677.83,-42.4861 1669.61,-35.7973 1671.87,-46.1501 1677.83,-42.4861"/>
</g>
<!-- 40 1 -->
<g id="node43" class="node"><title>40 1</title>
<ellipse fill="none" stroke="black" cx="1744.3" cy="-18" rx="27" ry="18"/>
<text text-anchor="middle" x="1744.3" y="-14.3" font-family="Times New Roman,serif" font-size="14.00">40 1</text>
</g>
<!-- 38 !!&#45;&gt;40 1 -->
<g id="edge42" class="edge"><title>38 !!&#45;&gt;40 1</title>
<path fill="none" stroke="black" d="M1712.04,-72.7646C1717.18,-64.1948 1723.6,-53.494 1729.36,-43.9004"/>
<polygon fill="black" stroke="black" points="1732.46,-45.523 1734.61,-35.1473 1726.46,-41.9215 1732.46,-45.523"/>
</g>
</g>
</svg>
