<?xml version="1.0" encoding="UTF-8" standalone="no"?>
<!DOCTYPE svg PUBLIC "-//W3C//DTD SVG 1.1//EN"
 "http://www.w3.org/Graphics/SVG/1.1/DTD/svg11.dtd">
<!-- Generated by graphviz version 2.38.0 (20140413.2041)
 -->
<!-- Title: G Pages: 1 -->
<svg width="1374pt" height="305pt"
 viewBox="0.00 0.00 1373.74 305.00" xmlns="http://www.w3.org/2000/svg" xmlns:xlink="http://www.w3.org/1999/xlink">
<g id="graph0" class="graph" transform="scale(1 1) rotate(0) translate(4 301)">
<title>G</title>
<polygon fill="white" stroke="none" points="-4,4 -4,-301 1369.74,-301 1369.74,4 -4,4"/>
<!-- 6 Call -->
<g id="node1" class="node"><title>6 Call</title>
<ellipse fill="none" stroke="black" cx="60.4446" cy="-279" rx="31.6951" ry="18"/>
<text text-anchor="middle" x="60.4446" y="-275.3" font-family="Times New Roman,serif" font-size="14.00">6 Call</text>
</g>
<!-- 7 Id(std.read) -->
<g id="node2" class="node"><title>7 Id(std.read)</title>
<ellipse fill="none" stroke="black" cx="60.4446" cy="-192" rx="60.3893" ry="18"/>
<text text-anchor="middle" x="60.4446" y="-188.3" font-family="Times New Roman,serif" font-size="14.00">7 Id(std.read)</text>
</g>
<!-- 6 Call&#45;&gt;7 Id(std.read) -->
<g id="edge1" class="edge"><title>6 Call&#45;&gt;7 Id(std.read)</title>
<path fill="none" stroke="black" d="M60.4446,-260.799C60.4446,-249.163 60.4446,-233.548 60.4446,-220.237"/>
<polygon fill="black" stroke="black" points="63.9447,-220.175 60.4446,-210.175 56.9447,-220.175 63.9447,-220.175"/>
<text text-anchor="middle" x="66.9446" y="-231.8" font-family="Times New Roman,serif" font-size="14.00"> =</text>
</g>
<!-- 16 Id(c) -->
<g id="node3" class="node"><title>16 Id(c)</title>
<ellipse fill="none" stroke="black" cx="179.445" cy="-192" rx="40.0939" ry="18"/>
<text text-anchor="middle" x="179.445" y="-188.3" font-family="Times New Roman,serif" font-size="14.00">16 Id(c)</text>
</g>
<!-- 17 ArrayType -->
<g id="node4" class="node"><title>17 ArrayType</title>
<ellipse fill="none" stroke="black" cx="213.445" cy="-105" rx="61.99" ry="18"/>
<text text-anchor="middle" x="213.445" y="-101.3" font-family="Times New Roman,serif" font-size="14.00">17 ArrayType</text>
</g>
<!-- 16 Id(c)&#45;&gt;17 ArrayType -->
<g id="edge2" class="edge"><title>16 Id(c)&#45;&gt;17 ArrayType</title>
<path fill="none" stroke="black" d="M186.162,-174.207C190.927,-162.293 197.419,-146.063 202.875,-132.424"/>
<polygon fill="black" stroke="black" points="206.161,-133.634 206.625,-123.049 199.661,-131.034 206.161,-133.634"/>
<text text-anchor="middle" x="205.945" y="-144.8" font-family="Times New Roman,serif" font-size="14.00"> =</text>
</g>
<!-- 18 TypeId(ui8) -->
<g id="node5" class="node"><title>18 TypeId(ui8)</title>
<ellipse fill="none" stroke="black" cx="213.445" cy="-18" rx="65.7887" ry="18"/>
<text text-anchor="middle" x="213.445" y="-14.3" font-family="Times New Roman,serif" font-size="14.00">18 TypeId(ui8)</text>
</g>
<!-- 17 ArrayType&#45;&gt;18 TypeId(ui8) -->
<g id="edge3" class="edge"><title>17 ArrayType&#45;&gt;18 TypeId(ui8)</title>
<path fill="none" stroke="black" d="M213.445,-86.799C213.445,-75.1626 213.445,-59.5479 213.445,-46.2368"/>
<polygon fill="black" stroke="black" points="216.945,-46.1754 213.445,-36.1754 209.945,-46.1755 216.945,-46.1754"/>
<text text-anchor="middle" x="221.945" y="-57.8" font-family="Times New Roman,serif" font-size="14.00"> ∈</text>
</g>
<!-- 19 Array -->
<g id="node6" class="node"><title>19 Array</title>
<ellipse fill="none" stroke="black" cx="280.445" cy="-192" rx="42.4939" ry="18"/>
<text text-anchor="middle" x="280.445" y="-188.3" font-family="Times New Roman,serif" font-size="14.00">19 Array</text>
</g>
<!-- 19 Array&#45;&gt;17 ArrayType -->
<g id="edge4" class="edge"><title>19 Array&#45;&gt;17 ArrayType</title>
<path fill="none" stroke="black" d="M267.526,-174.611C257.672,-162.11 243.939,-144.687 232.778,-130.527"/>
<polygon fill="black" stroke="black" points="235.491,-128.315 226.552,-122.629 229.994,-132.649 235.491,-128.315"/>
<text text-anchor="middle" x="257.945" y="-144.8" font-family="Times New Roman,serif" font-size="14.00"> =</text>
</g>
<!-- 20 + -->
<g id="node7" class="node"><title>20 +</title>
<ellipse fill="none" stroke="black" cx="208.445" cy="-279" rx="27.0966" ry="18"/>
<text text-anchor="middle" x="208.445" y="-275.3" font-family="Times New Roman,serif" font-size="14.00">20 +</text>
</g>
<!-- 20 +&#45;&gt;19 Array -->
<g id="edge5" class="edge"><title>20 +&#45;&gt;19 Array</title>
<path fill="none" stroke="black" d="M221.317,-262.804C232.101,-250.072 247.688,-231.671 260.151,-216.958"/>
<polygon fill="black" stroke="black" points="262.91,-219.115 266.703,-209.222 257.569,-214.591 262.91,-219.115"/>
<text text-anchor="middle" x="257.945" y="-231.8" font-family="Times New Roman,serif" font-size="14.00"> ∈</text>
</g>
<!-- 21 1 -->
<g id="node8" class="node"><title>21 1</title>
<ellipse fill="none" stroke="black" cx="424.445" cy="-279" rx="27" ry="18"/>
<text text-anchor="middle" x="424.445" y="-275.3" font-family="Times New Roman,serif" font-size="14.00">21 1</text>
</g>
<!-- 22 2 -->
<g id="node9" class="node"><title>22 2</title>
<ellipse fill="none" stroke="black" cx="424.445" cy="-192" rx="27" ry="18"/>
<text text-anchor="middle" x="424.445" y="-188.3" font-family="Times New Roman,serif" font-size="14.00">22 2</text>
</g>
<!-- 21 1&#45;&gt;22 2 -->
<g id="edge6" class="edge"><title>21 1&#45;&gt;22 2</title>
<path fill="none" stroke="black" d="M418.941,-261.207C417.629,-249.448 417.353,-233.485 418.113,-219.958"/>
<polygon fill="black" stroke="black" points="421.62,-220.01 418.945,-209.758 414.643,-219.441 421.62,-220.01"/>
</g>
<!-- 22 2&#45;&gt;21 1 -->
<g id="edge7" class="edge"><title>22 2&#45;&gt;21 1</title>
<path fill="none" stroke="black" d="M429.944,-209.758C431.259,-221.508 431.537,-237.47 430.779,-251.002"/>
<polygon fill="black" stroke="black" points="427.271,-250.956 429.948,-261.207 434.248,-251.524 427.271,-250.956"/>
</g>
<!-- 23 2 -->
<g id="node10" class="node"><title>23 2</title>
<ellipse fill="none" stroke="black" cx="280.445" cy="-279" rx="27" ry="18"/>
<text text-anchor="middle" x="280.445" y="-275.3" font-family="Times New Roman,serif" font-size="14.00">23 2</text>
</g>
<!-- 23 2&#45;&gt;19 Array -->
<g id="edge8" class="edge"><title>23 2&#45;&gt;19 Array</title>
<path fill="none" stroke="black" d="M280.445,-260.799C280.445,-249.163 280.445,-233.548 280.445,-220.237"/>
<polygon fill="black" stroke="black" points="283.945,-220.175 280.445,-210.175 276.945,-220.175 283.945,-220.175"/>
<text text-anchor="middle" x="288.945" y="-231.8" font-family="Times New Roman,serif" font-size="14.00"> ∈</text>
</g>
<!-- 24 3 -->
<g id="node11" class="node"><title>24 3</title>
<ellipse fill="none" stroke="black" cx="352.445" cy="-279" rx="27" ry="18"/>
<text text-anchor="middle" x="352.445" y="-275.3" font-family="Times New Roman,serif" font-size="14.00">24 3</text>
</g>
<!-- 24 3&#45;&gt;19 Array -->
<g id="edge9" class="edge"><title>24 3&#45;&gt;19 Array</title>
<path fill="none" stroke="black" d="M339.572,-262.804C328.788,-250.072 313.201,-231.671 300.738,-216.958"/>
<polygon fill="black" stroke="black" points="303.32,-214.591 294.186,-209.222 297.979,-219.115 303.32,-214.591"/>
<text text-anchor="middle" x="329.945" y="-231.8" font-family="Times New Roman,serif" font-size="14.00"> ∈</text>
</g>
<!-- 26 Id(f) -->
<g id="node12" class="node"><title>26 Id(f)</title>
<ellipse fill="none" stroke="black" cx="544.445" cy="-279" rx="38.1938" ry="18"/>
<text text-anchor="middle" x="544.445" y="-275.3" font-family="Times New Roman,serif" font-size="14.00">26 Id(f)</text>
</g>
<!-- 27 TypeId(string) -->
<g id="node13" class="node"><title>27 TypeId(string)</title>
<ellipse fill="none" stroke="black" cx="544.445" cy="-192" rx="74.9875" ry="18"/>
<text text-anchor="middle" x="544.445" y="-188.3" font-family="Times New Roman,serif" font-size="14.00">27 TypeId(string)</text>
</g>
<!-- 26 Id(f)&#45;&gt;27 TypeId(string) -->
<g id="edge10" class="edge"><title>26 Id(f)&#45;&gt;27 TypeId(string)</title>
<path fill="none" stroke="black" d="M544.445,-260.799C544.445,-249.163 544.445,-233.548 544.445,-220.237"/>
<polygon fill="black" stroke="black" points="547.945,-220.175 544.445,-210.175 540.945,-220.175 547.945,-220.175"/>
<text text-anchor="middle" x="550.945" y="-231.8" font-family="Times New Roman,serif" font-size="14.00"> =</text>
</g>
<!-- 28 Call -->
<g id="node14" class="node"><title>28 Call</title>
<ellipse fill="none" stroke="black" cx="668.445" cy="-279" rx="36.2938" ry="18"/>
<text text-anchor="middle" x="668.445" y="-275.3" font-family="Times New Roman,serif" font-size="14.00">28 Call</text>
</g>
<!-- 28 Call&#45;&gt;27 TypeId(string) -->
<g id="edge11" class="edge"><title>28 Call&#45;&gt;27 TypeId(string)</title>
<path fill="none" stroke="black" d="M647.969,-263.964C628.572,-250.668 599.14,-230.493 576.61,-215.049"/>
<polygon fill="black" stroke="black" points="578.576,-212.153 568.348,-209.386 574.618,-217.927 578.576,-212.153"/>
<text text-anchor="middle" x="620.945" y="-231.8" font-family="Times New Roman,serif" font-size="14.00"> =</text>
</g>
<!-- 29 Id(read_in) -->
<g id="node15" class="node"><title>29 Id(read_in)</title>
<ellipse fill="none" stroke="black" cx="699.445" cy="-192" rx="62.2891" ry="18"/>
<text text-anchor="middle" x="699.445" y="-188.3" font-family="Times New Roman,serif" font-size="14.00">29 Id(read_in)</text>
</g>
<!-- 28 Call&#45;&gt;29 Id(read_in) -->
<g id="edge12" class="edge"><title>28 Call&#45;&gt;29 Id(read_in)</title>
<path fill="none" stroke="black" d="M674.569,-261.207C678.872,-249.409 684.718,-233.378 689.662,-219.822"/>
<polygon fill="black" stroke="black" points="693.088,-220.643 693.227,-210.049 686.512,-218.245 693.088,-220.643"/>
<text text-anchor="middle" x="692.945" y="-231.8" font-family="Times New Roman,serif" font-size="14.00"> =</text>
</g>
<!-- 31 Call -->
<g id="node16" class="node"><title>31 Call</title>
<ellipse fill="none" stroke="black" cx="852.445" cy="-279" rx="36.2938" ry="18"/>
<text text-anchor="middle" x="852.445" y="-275.3" font-family="Times New Roman,serif" font-size="14.00">31 Call</text>
</g>
<!-- 32 Id(std.println) -->
<g id="node17" class="node"><title>32 Id(std.println)</title>
<ellipse fill="none" stroke="black" cx="852.445" cy="-192" rx="72.2875" ry="18"/>
<text text-anchor="middle" x="852.445" y="-188.3" font-family="Times New Roman,serif" font-size="14.00">32 Id(std.println)</text>
</g>
<!-- 31 Call&#45;&gt;32 Id(std.println) -->
<g id="edge13" class="edge"><title>31 Call&#45;&gt;32 Id(std.println)</title>
<path fill="none" stroke="black" d="M852.445,-260.799C852.445,-249.163 852.445,-233.548 852.445,-220.237"/>
<polygon fill="black" stroke="black" points="855.945,-220.175 852.445,-210.175 848.945,-220.175 855.945,-220.175"/>
<text text-anchor="middle" x="858.945" y="-231.8" font-family="Times New Roman,serif" font-size="14.00"> =</text>
</g>
<!-- 34 Call -->
<g id="node18" class="node"><title>34 Call</title>
<ellipse fill="none" stroke="black" cx="1014.44" cy="-279" rx="36.2938" ry="18"/>
<text text-anchor="middle" x="1014.44" y="-275.3" font-family="Times New Roman,serif" font-size="14.00">34 Call</text>
</g>
<!-- 35 Id(std.println) -->
<g id="node19" class="node"><title>35 Id(std.println)</title>
<ellipse fill="none" stroke="black" cx="1014.44" cy="-192" rx="72.2875" ry="18"/>
<text text-anchor="middle" x="1014.44" y="-188.3" font-family="Times New Roman,serif" font-size="14.00">35 Id(std.println)</text>
</g>
<!-- 34 Call&#45;&gt;35 Id(std.println) -->
<g id="edge14" class="edge"><title>34 Call&#45;&gt;35 Id(std.println)</title>
<path fill="none" stroke="black" d="M1014.44,-260.799C1014.44,-249.163 1014.44,-233.548 1014.44,-220.237"/>
<polygon fill="black" stroke="black" points="1017.94,-220.175 1014.44,-210.175 1010.94,-220.175 1017.94,-220.175"/>
<text text-anchor="middle" x="1020.94" y="-231.8" font-family="Times New Roman,serif" font-size="14.00"> =</text>
</g>
<!-- 36 Call -->
<g id="node20" class="node"><title>36 Call</title>
<ellipse fill="none" stroke="black" cx="1185.44" cy="-279" rx="36.2938" ry="18"/>
<text text-anchor="middle" x="1185.44" y="-275.3" font-family="Times New Roman,serif" font-size="14.00">36 Call</text>
</g>
<!-- 37 Id(std.to_string) -->
<g id="node21" class="node"><title>37 Id(std.to_string)</title>
<ellipse fill="none" stroke="black" cx="1185.44" cy="-192" rx="81.4863" ry="18"/>
<text text-anchor="middle" x="1185.44" y="-188.3" font-family="Times New Roman,serif" font-size="14.00">37 Id(std.to_string)</text>
</g>
<!-- 36 Call&#45;&gt;37 Id(std.to_string) -->
<g id="edge15" class="edge"><title>36 Call&#45;&gt;37 Id(std.to_string)</title>
<path fill="none" stroke="black" d="M1185.44,-260.799C1185.44,-249.163 1185.44,-233.548 1185.44,-220.237"/>
<polygon fill="black" stroke="black" points="1188.94,-220.175 1185.44,-210.175 1181.94,-220.175 1188.94,-220.175"/>
<text text-anchor="middle" x="1191.94" y="-231.8" font-family="Times New Roman,serif" font-size="14.00"> =</text>
</g>
<!-- 40 1 -->
<g id="node22" class="node"><title>40 1</title>
<ellipse fill="none" stroke="black" cx="1325.44" cy="-279" rx="27" ry="18"/>
<text text-anchor="middle" x="1325.44" y="-275.3" font-family="Times New Roman,serif" font-size="14.00">40 1</text>
</g>
<!-- 39 Id(c) -->
<g id="node23" class="node"><title>39 Id(c)</title>
<ellipse fill="none" stroke="black" cx="1325.44" cy="-192" rx="40.0939" ry="18"/>
<text text-anchor="middle" x="1325.44" y="-188.3" font-family="Times New Roman,serif" font-size="14.00">39 Id(c)</text>
</g>
<!-- 40 1&#45;&gt;39 Id(c) -->
<g id="edge16" class="edge"><title>40 1&#45;&gt;39 Id(c)</title>
<path fill="none" stroke="black" d="M1325.44,-260.799C1325.44,-249.163 1325.44,-233.548 1325.44,-220.237"/>
<polygon fill="black" stroke="black" points="1328.94,-220.175 1325.44,-210.175 1321.94,-220.175 1328.94,-220.175"/>
</g>
</g>
</svg>
