<?xml version="1.0" encoding="UTF-8" standalone="no"?>
<!DOCTYPE svg PUBLIC "-//W3C//DTD SVG 1.1//EN"
 "http://www.w3.org/Graphics/SVG/1.1/DTD/svg11.dtd">
<!-- Generated by graphviz version 2.38.0 (20140413.2041)
 -->
<!-- Title: G Pages: 1 -->
<svg width="232pt" height="188pt"
 viewBox="0.00 0.00 232.29 188.00" xmlns="http://www.w3.org/2000/svg" xmlns:xlink="http://www.w3.org/1999/xlink">
<g id="graph0" class="graph" transform="scale(1 1) rotate(0) translate(4 184)">
<title>G</title>
<polygon fill="white" stroke="none" points="-4,4 -4,-184 228.29,-184 228.29,4 -4,4"/>
<!-- 1 3 Fn -->
<g id="node1" class="node"><title>1 3 Fn</title>
<ellipse fill="none" stroke="black" cx="159.295" cy="-90" rx="34.394" ry="18"/>
<text text-anchor="middle" x="159.295" y="-86.3" font-family="Times New Roman,serif" font-size="14.00">1 3 Fn</text>
</g>
<!-- 0 0 File -->
<g id="node2" class="node"><title>0 0 File</title>
<ellipse fill="none" stroke="black" cx="106.295" cy="-18" rx="37.8943" ry="18"/>
<text text-anchor="middle" x="106.295" y="-14.3" font-family="Times New Roman,serif" font-size="14.00">0 0 File</text>
</g>
<!-- 1 3 Fn&#45;&gt;0 0 File -->
<g id="edge1" class="edge"><title>1 3 Fn&#45;&gt;0 0 File</title>
<path fill="none" stroke="black" d="M147.269,-73.1159C140.655,-64.3803 132.305,-53.3528 124.872,-43.5352"/>
<polygon fill="black" stroke="black" points="127.469,-41.1669 118.642,-35.307 121.888,-45.3923 127.469,-41.1669"/>
</g>
<!-- 2 3 Id(read_in) -->
<g id="node3" class="node"><title>2 3 Id(read_in)</title>
<ellipse fill="none" stroke="black" cx="159.295" cy="-162" rx="64.9885" ry="18"/>
<text text-anchor="middle" x="159.295" y="-158.3" font-family="Times New Roman,serif" font-size="14.00">2 3 Id(read_in)</text>
</g>
<!-- 2 3 Id(read_in)&#45;&gt;1 3 Fn -->
<g id="edge2" class="edge"><title>2 3 Id(read_in)&#45;&gt;1 3 Fn</title>
<path fill="none" stroke="black" d="M159.295,-143.697C159.295,-135.983 159.295,-126.712 159.295,-118.112"/>
<polygon fill="black" stroke="black" points="162.795,-118.104 159.295,-108.104 155.795,-118.104 162.795,-118.104"/>
</g>
<!-- 3 3 FnType -->
<g id="node4" class="node"><title>3 3 FnType</title>
<ellipse fill="none" stroke="black" cx="53.2953" cy="-90" rx="53.0913" ry="18"/>
<text text-anchor="middle" x="53.2953" y="-86.3" font-family="Times New Roman,serif" font-size="14.00">3 3 FnType</text>
</g>
<!-- 3 3 FnType&#45;&gt;0 0 File -->
<g id="edge3" class="edge"><title>3 3 FnType&#45;&gt;0 0 File</title>
<path fill="none" stroke="black" d="M65.8555,-72.411C72.39,-63.7805 80.5053,-53.0622 87.7474,-43.4972"/>
<polygon fill="black" stroke="black" points="90.5792,-45.5553 93.8252,-35.4699 84.9983,-41.3298 90.5792,-45.5553"/>
</g>
</g>
</svg>
