<?xml version="1.0" encoding="UTF-8" standalone="no"?>
<!DOCTYPE svg PUBLIC "-//W3C//DTD SVG 1.1//EN"
 "http://www.w3.org/Graphics/SVG/1.1/DTD/svg11.dtd">
<!-- Generated by graphviz version 2.38.0 (20140413.2041)
 -->
<!-- Title: G Pages: 1 -->
<svg width="782pt" height="260pt"
 viewBox="0.00 0.00 782.00 260.00" xmlns="http://www.w3.org/2000/svg" xmlns:xlink="http://www.w3.org/1999/xlink">
<g id="graph0" class="graph" transform="scale(1 1) rotate(0) translate(4 256)">
<title>G</title>
<polygon fill="white" stroke="none" points="-4,4 -4,-256 778,-256 778,4 -4,4"/>
<!-- 6  -->
<g id="node1" class="node"><title>6 </title>
<ellipse fill="none" stroke="black" cx="27" cy="-234" rx="27" ry="18"/>
<text text-anchor="middle" x="27" y="-230.3" font-family="Times New Roman,serif" font-size="14.00">6 </text>
</g>
<!-- 7  -->
<g id="node2" class="node"><title>7 </title>
<ellipse fill="none" stroke="black" cx="27" cy="-162" rx="27" ry="18"/>
<text text-anchor="middle" x="27" y="-158.3" font-family="Times New Roman,serif" font-size="14.00">7 </text>
</g>
<!-- 6 &#45;&gt;7  -->
<g id="edge1" class="edge"><title>6 &#45;&gt;7 </title>
<path fill="none" stroke="black" d="M27,-215.697C27,-207.983 27,-198.712 27,-190.112"/>
<polygon fill="black" stroke="black" points="30.5001,-190.104 27,-180.104 23.5001,-190.104 30.5001,-190.104"/>
</g>
<!-- 16  -->
<g id="node3" class="node"><title>16 </title>
<ellipse fill="none" stroke="black" cx="99" cy="-162" rx="27" ry="18"/>
<text text-anchor="middle" x="99" y="-158.3" font-family="Times New Roman,serif" font-size="14.00">16 </text>
</g>
<!-- 17  -->
<g id="node4" class="node"><title>17 </title>
<ellipse fill="none" stroke="black" cx="135" cy="-90" rx="27" ry="18"/>
<text text-anchor="middle" x="135" y="-86.3" font-family="Times New Roman,serif" font-size="14.00">17 </text>
</g>
<!-- 16 &#45;&gt;17  -->
<g id="edge2" class="edge"><title>16 &#45;&gt;17 </title>
<path fill="none" stroke="black" d="M107.35,-144.765C111.712,-136.283 117.147,-125.714 122.041,-116.197"/>
<polygon fill="black" stroke="black" points="125.235,-117.641 126.696,-107.147 119.01,-114.439 125.235,-117.641"/>
</g>
<!-- 18  -->
<g id="node5" class="node"><title>18 </title>
<ellipse fill="none" stroke="black" cx="135" cy="-18" rx="27" ry="18"/>
<text text-anchor="middle" x="135" y="-14.3" font-family="Times New Roman,serif" font-size="14.00">18 </text>
</g>
<!-- 17 &#45;&gt;18  -->
<g id="edge3" class="edge"><title>17 &#45;&gt;18 </title>
<path fill="none" stroke="black" d="M135,-71.6966C135,-63.9827 135,-54.7125 135,-46.1124"/>
<polygon fill="black" stroke="black" points="138.5,-46.1043 135,-36.1043 131.5,-46.1044 138.5,-46.1043"/>
</g>
<!-- 19  -->
<g id="node6" class="node"><title>19 </title>
<ellipse fill="none" stroke="black" cx="171" cy="-162" rx="27" ry="18"/>
<text text-anchor="middle" x="171" y="-158.3" font-family="Times New Roman,serif" font-size="14.00">19 </text>
</g>
<!-- 19 &#45;&gt;17  -->
<g id="edge4" class="edge"><title>19 &#45;&gt;17 </title>
<path fill="none" stroke="black" d="M162.65,-144.765C158.288,-136.283 152.853,-125.714 147.959,-116.197"/>
<polygon fill="black" stroke="black" points="150.99,-114.439 143.304,-107.147 144.765,-117.641 150.99,-114.439"/>
</g>
<!-- 20  -->
<g id="node7" class="node"><title>20 </title>
<ellipse fill="none" stroke="black" cx="99" cy="-234" rx="27" ry="18"/>
<text text-anchor="middle" x="99" y="-230.3" font-family="Times New Roman,serif" font-size="14.00">20 </text>
</g>
<!-- 20 &#45;&gt;19  -->
<g id="edge5" class="edge"><title>20 &#45;&gt;19 </title>
<path fill="none" stroke="black" d="M113.57,-218.834C123.75,-208.938 137.524,-195.546 149.031,-184.359"/>
<polygon fill="black" stroke="black" points="151.474,-186.865 156.204,-177.385 146.595,-181.846 151.474,-186.865"/>
</g>
<!-- 21  -->
<g id="node8" class="node"><title>21 </title>
<ellipse fill="none" stroke="black" cx="315" cy="-234" rx="27" ry="18"/>
<text text-anchor="middle" x="315" y="-230.3" font-family="Times New Roman,serif" font-size="14.00">21 </text>
</g>
<!-- 22  -->
<g id="node9" class="node"><title>22 </title>
<ellipse fill="none" stroke="black" cx="315" cy="-162" rx="27" ry="18"/>
<text text-anchor="middle" x="315" y="-158.3" font-family="Times New Roman,serif" font-size="14.00">22 </text>
</g>
<!-- 21 &#45;&gt;22  -->
<g id="edge6" class="edge"><title>21 &#45;&gt;22 </title>
<path fill="none" stroke="black" d="M309.16,-216.411C308.297,-208.507 308.048,-198.852 308.412,-189.935"/>
<polygon fill="black" stroke="black" points="311.903,-190.179 309.121,-179.956 304.921,-189.683 311.903,-190.179"/>
</g>
<!-- 22 &#45;&gt;21  -->
<g id="edge7" class="edge"><title>22 &#45;&gt;21 </title>
<path fill="none" stroke="black" d="M320.879,-179.956C321.714,-187.827 321.948,-197.374 321.583,-206.187"/>
<polygon fill="black" stroke="black" points="318.074,-206.184 320.84,-216.411 325.056,-206.691 318.074,-206.184"/>
</g>
<!-- 23  -->
<g id="node10" class="node"><title>23 </title>
<ellipse fill="none" stroke="black" cx="171" cy="-234" rx="27" ry="18"/>
<text text-anchor="middle" x="171" y="-230.3" font-family="Times New Roman,serif" font-size="14.00">23 </text>
</g>
<!-- 23 &#45;&gt;19  -->
<g id="edge8" class="edge"><title>23 &#45;&gt;19 </title>
<path fill="none" stroke="black" d="M171,-215.697C171,-207.983 171,-198.712 171,-190.112"/>
<polygon fill="black" stroke="black" points="174.5,-190.104 171,-180.104 167.5,-190.104 174.5,-190.104"/>
</g>
<!-- 24  -->
<g id="node11" class="node"><title>24 </title>
<ellipse fill="none" stroke="black" cx="243" cy="-234" rx="27" ry="18"/>
<text text-anchor="middle" x="243" y="-230.3" font-family="Times New Roman,serif" font-size="14.00">24 </text>
</g>
<!-- 24 &#45;&gt;19  -->
<g id="edge9" class="edge"><title>24 &#45;&gt;19 </title>
<path fill="none" stroke="black" d="M228.43,-218.834C218.25,-208.938 204.476,-195.546 192.969,-184.359"/>
<polygon fill="black" stroke="black" points="195.405,-181.846 185.796,-177.385 190.526,-186.865 195.405,-181.846"/>
</g>
<!-- 26  -->
<g id="node12" class="node"><title>26 </title>
<ellipse fill="none" stroke="black" cx="387" cy="-234" rx="27" ry="18"/>
<text text-anchor="middle" x="387" y="-230.3" font-family="Times New Roman,serif" font-size="14.00">26 </text>
</g>
<!-- 27  -->
<g id="node13" class="node"><title>27 </title>
<ellipse fill="none" stroke="black" cx="387" cy="-162" rx="27" ry="18"/>
<text text-anchor="middle" x="387" y="-158.3" font-family="Times New Roman,serif" font-size="14.00">27 </text>
</g>
<!-- 26 &#45;&gt;27  -->
<g id="edge10" class="edge"><title>26 &#45;&gt;27 </title>
<path fill="none" stroke="black" d="M387,-215.697C387,-207.983 387,-198.712 387,-190.112"/>
<polygon fill="black" stroke="black" points="390.5,-190.104 387,-180.104 383.5,-190.104 390.5,-190.104"/>
</g>
<!-- 28  -->
<g id="node14" class="node"><title>28 </title>
<ellipse fill="none" stroke="black" cx="459" cy="-234" rx="27" ry="18"/>
<text text-anchor="middle" x="459" y="-230.3" font-family="Times New Roman,serif" font-size="14.00">28 </text>
</g>
<!-- 28 &#45;&gt;27  -->
<g id="edge11" class="edge"><title>28 &#45;&gt;27 </title>
<path fill="none" stroke="black" d="M444.43,-218.834C434.25,-208.938 420.476,-195.546 408.969,-184.359"/>
<polygon fill="black" stroke="black" points="411.405,-181.846 401.796,-177.385 406.526,-186.865 411.405,-181.846"/>
</g>
<!-- 29  -->
<g id="node15" class="node"><title>29 </title>
<ellipse fill="none" stroke="black" cx="459" cy="-162" rx="27" ry="18"/>
<text text-anchor="middle" x="459" y="-158.3" font-family="Times New Roman,serif" font-size="14.00">29 </text>
</g>
<!-- 28 &#45;&gt;29  -->
<g id="edge12" class="edge"><title>28 &#45;&gt;29 </title>
<path fill="none" stroke="black" d="M459,-215.697C459,-207.983 459,-198.712 459,-190.112"/>
<polygon fill="black" stroke="black" points="462.5,-190.104 459,-180.104 455.5,-190.104 462.5,-190.104"/>
</g>
<!-- 31  -->
<g id="node16" class="node"><title>31 </title>
<ellipse fill="none" stroke="black" cx="531" cy="-234" rx="27" ry="18"/>
<text text-anchor="middle" x="531" y="-230.3" font-family="Times New Roman,serif" font-size="14.00">31 </text>
</g>
<!-- 32  -->
<g id="node17" class="node"><title>32 </title>
<ellipse fill="none" stroke="black" cx="531" cy="-162" rx="27" ry="18"/>
<text text-anchor="middle" x="531" y="-158.3" font-family="Times New Roman,serif" font-size="14.00">32 </text>
</g>
<!-- 31 &#45;&gt;32  -->
<g id="edge13" class="edge"><title>31 &#45;&gt;32 </title>
<path fill="none" stroke="black" d="M531,-215.697C531,-207.983 531,-198.712 531,-190.112"/>
<polygon fill="black" stroke="black" points="534.5,-190.104 531,-180.104 527.5,-190.104 534.5,-190.104"/>
</g>
<!-- 34  -->
<g id="node18" class="node"><title>34 </title>
<ellipse fill="none" stroke="black" cx="603" cy="-234" rx="27" ry="18"/>
<text text-anchor="middle" x="603" y="-230.3" font-family="Times New Roman,serif" font-size="14.00">34 </text>
</g>
<!-- 35  -->
<g id="node19" class="node"><title>35 </title>
<ellipse fill="none" stroke="black" cx="603" cy="-162" rx="27" ry="18"/>
<text text-anchor="middle" x="603" y="-158.3" font-family="Times New Roman,serif" font-size="14.00">35 </text>
</g>
<!-- 34 &#45;&gt;35  -->
<g id="edge14" class="edge"><title>34 &#45;&gt;35 </title>
<path fill="none" stroke="black" d="M603,-215.697C603,-207.983 603,-198.712 603,-190.112"/>
<polygon fill="black" stroke="black" points="606.5,-190.104 603,-180.104 599.5,-190.104 606.5,-190.104"/>
</g>
<!-- 36  -->
<g id="node20" class="node"><title>36 </title>
<ellipse fill="none" stroke="black" cx="675" cy="-234" rx="27" ry="18"/>
<text text-anchor="middle" x="675" y="-230.3" font-family="Times New Roman,serif" font-size="14.00">36 </text>
</g>
<!-- 37  -->
<g id="node21" class="node"><title>37 </title>
<ellipse fill="none" stroke="black" cx="675" cy="-162" rx="27" ry="18"/>
<text text-anchor="middle" x="675" y="-158.3" font-family="Times New Roman,serif" font-size="14.00">37 </text>
</g>
<!-- 36 &#45;&gt;37  -->
<g id="edge15" class="edge"><title>36 &#45;&gt;37 </title>
<path fill="none" stroke="black" d="M675,-215.697C675,-207.983 675,-198.712 675,-190.112"/>
<polygon fill="black" stroke="black" points="678.5,-190.104 675,-180.104 671.5,-190.104 678.5,-190.104"/>
</g>
<!-- 40  -->
<g id="node22" class="node"><title>40 </title>
<ellipse fill="none" stroke="black" cx="747" cy="-234" rx="27" ry="18"/>
<text text-anchor="middle" x="747" y="-230.3" font-family="Times New Roman,serif" font-size="14.00">40 </text>
</g>
<!-- 39  -->
<g id="node23" class="node"><title>39 </title>
<ellipse fill="none" stroke="black" cx="747" cy="-162" rx="27" ry="18"/>
<text text-anchor="middle" x="747" y="-158.3" font-family="Times New Roman,serif" font-size="14.00">39 </text>
</g>
<!-- 40 &#45;&gt;39  -->
<g id="edge16" class="edge"><title>40 &#45;&gt;39 </title>
<path fill="none" stroke="black" d="M747,-215.697C747,-207.983 747,-198.712 747,-190.112"/>
<polygon fill="black" stroke="black" points="750.5,-190.104 747,-180.104 743.5,-190.104 750.5,-190.104"/>
</g>
</g>
</svg>
